:FULLY-SPECIFIED
:FORCE-ALL-JOINTS-BE-3DOF
:DEGREES
985
root 1.1123 15.1535 32.4977 5.37202 -4.81671 364.119
lfemur 8.78149 1.89508 5.17307
ltibia -0.00335486 0 0
lfoot -30.1226 -11.7339 0
ltoes -33.8608 0 0
rfemur -33.0329 -15.6804 -6.20446
rtibia 50.8032 0 0
rfoot -22.7718 5.18086 0
rtoes -42.0759 0 0
lowerback -1.50614 -0.38474 0.690587
upperback -0.75347 -0.519324 -5.87521
thorax 0.00804847 -0.277165 -6.49252
lowerneck -6.71298 1.19396 5.82222
upperneck 1.07931 1.01042 3.35471
head 1.48154 0.608436 0.101203
lclavicle -8.55241e-15 6.15247e-15 0
lhumerus -58.2447 -44.9414 114.787
lradius 54.9777 0 0
lwrist 24.9623 0 0
lhand 37.2514 24.432 0
lfingers 7.12502 0 0
lthumb 60.0806 38.1302 0
rclavicle -8.55241e-15 6.15247e-15 0
rhumerus 3.86666 -24.8743 -0.0272293
rradius 28.0206 0 0
rwrist -11.2817 0 0
rhand -31.4584 -44.7224 0
rfingers 7.12502 0 0
rthumb -4.72587 -794.651 0
986
root 1.11614 15.1548 32.4912 5.33549 -4.75052 364.111
lfemur 8.75908 1.82199 5.16986
ltibia -0.00157388 0 0
lfoot -30.1179 -11.7105 0
ltoes -33.8809 0 0
rfemur -32.9374 -15.6411 -6.22386
rtibia 50.7332 0 0
rfoot -22.7405 5.08506 0
rtoes -42.1433 0 0
lowerback -1.50099 -0.375695 0.683871
upperback -0.738918 -0.506406 -5.86743
thorax 0.0218776 -0.270052 -6.48022
lowerneck -6.74076 1.18396 5.82009
upperneck 1.13222 0.99264 3.35473
head 1.50332 0.601612 0.101284
lclavicle -1.01078e-14 3.77745e-15 0
lhumerus -58.2502 -45.0102 114.812
lradius 54.9994 0 0
lwrist 24.9641 0 0
lhand 37.2483 24.4093 0
lfingers 7.12502 0 0
lthumb 60.0778 38.109 0
rclavicle -1.01078e-14 3.77745e-15 0
rhumerus 3.82301 -24.8539 -0.0925704
rradius 28.0009 0 0
rwrist -11.2318 0 0
rhand -31.4672 -44.6292 0
rfingers 7.12502 0 0
rthumb -4.7343 -794.557 0
987
root 1.11997 15.156 32.4846 5.30131 -4.69094 364.1
lfemur 8.74025 1.75575 5.171
ltibia -0.00041418 0 0
lfoot -30.1155 -11.6845 0
ltoes -33.9024 0 0
rfemur -32.8529 -15.6096 -6.23747
rtibia 50.6735 0 0
rfoot -22.716 5.00183 0
rtoes -42.2045 0 0
lowerback -1.49485 -0.367232 0.676875
upperback -0.72523 -0.494348 -5.85987
thorax 0.0341458 -0.263421 -6.46798
lowerneck -6.76649 1.17532 5.82084
upperneck 1.17873 0.976853 3.35581
head 1.52271 0.595591 0.101246
lclavicle -1.13459e-14 1.70996e-15 0
lhumerus -58.2568 -45.0761 114.84
lradius 55.0202 0 0
lwrist 24.9663 0 0
lhand 37.2421 24.3914 0
lfingers 7.12502 0 0
lthumb 60.0723 38.0959 0
rclavicle -1.13459e-14 1.70996e-15 0
rhumerus 3.78241 -24.8222 -0.143569
rradius 27.9822 0 0
rwrist -11.183 0 0
rhand -31.4636 -44.5396 0
rfingers 7.12502 0 0
rthumb -4.7308 -794.467 0
988
root 1.1238 15.1573 32.4781 5.2697 -4.63928 364.088
lfemur 8.7258 1.6976 5.17712
ltibia 1.90833e-14 0 0
lfoot -30.1159 -11.6552 0
ltoes -33.9256 0 0
rfemur -32.7814 -15.5868 -6.24436
rtibia 50.6256 0 0
rfoot -22.6997 4.93313 0
rtoes -42.2585 0 0
lowerback -1.48754 -0.359459 0.669615
upperback -0.712469 -0.483304 -5.85243
thorax 0.0446671 -0.257355 -6.4557
lowerneck -6.78983 1.16834 5.82499
upperneck 1.21788 0.963487 3.35806
head 1.53935 0.590558 0.101043
lclavicle -1.22253e-14 0 0
lhumerus -58.2643 -45.1387 114.869
lradius 55.0398 0 0
lwrist 24.9687 0 0
lhand 37.2319 24.379 0
lfingers 7.12502 0 0
lthumb 60.0636 38.0924 0
rclavicle -1.22253e-14 0 0
rhumerus 3.74548 -24.7764 -0.17803
rradius 27.9644 0 0
rwrist -11.1351 0 0
rhand -31.4451 -44.4536 0
rfingers 7.12502 0 0
rthumb -4.71295 -794.381 0
989
root 1.12471 15.1576 32.4753 5.24033 -4.59128 364.074
lfemur 8.7129 1.64363 5.18727
ltibia 1.68347e-14 0 0
lfoot -30.1176 -11.6237 0
ltoes -33.9494 0 0
rfemur -32.7178 -15.5712 -6.24615
rtibia 50.5852 0 0
rfoot -22.689 4.87312 0
rtoes -42.3102 0 0
lowerback -1.47905 -0.352096 0.662004
upperback -0.700666 -0.472897 -5.84546
thorax 0.0534521 -0.251663 -6.4437
lowerneck -6.81206 1.16212 5.83102
upperneck 1.25173 0.95125 3.36156
head 1.55411 0.585945 0.100925
lclavicle -1.28097e-14 -1.53378e-15 0
lhumerus -58.2741 -45.2001 114.9
lradius 55.0596 0 0
lwrist 24.9715 0 0
lhand 37.2197 24.371 0
lfingers 7.12502 0 0
lthumb 60.0532 38.0955 0
rclavicle -1.28097e-14 -1.53378e-15 0
rhumerus 3.71013 -24.7235 -0.200203
rradius 27.9478 0 0
rwrist -11.0907 0 0
rhand -31.4182 -44.3721 0
rfingers 7.12502 0 0
rthumb -4.68698 -794.3 0
990
root 1.12562 15.158 32.4725 5.21267 -4.54196 364.058
lfemur 8.69836 1.58918 5.19988
ltibia 1.41373e-14 0 0
lfoot -30.1186 -11.5915 0
ltoes -33.9723 0 0
rfemur -32.6557 -15.5605 -6.24523
rtibia 50.5466 0 0
rfoot -22.6806 4.81478 0
rtoes -42.3648 0 0
lowerback -1.46962 -0.34479 0.653957
upperback -0.689775 -0.46264 -5.83933
thorax 0.0607326 -0.246094 -6.43235
lowerneck -6.83465 1.15555 5.83709
upperneck 1.28306 0.938597 3.36624
head 1.56812 0.581074 0.101148
lclavicle -1.31996e-14 -3.09641e-15 0
lhumerus -58.2872 -45.2627 114.933
lradius 55.0812 0 0
lwrist 24.9748 0 0
lhand 37.2078 24.3659 0
lfingers 7.12502 0 0
lthumb 60.043 38.1012 0
rclavicle -1.31996e-14 -3.09641e-15 0
rhumerus 3.67396 -24.6719 -0.216119
rradius 27.9326 0 0
rwrist -11.0525 0 0
rhand -31.391 -44.2956 0
rfingers 7.12502 0 0
rthumb -4.66074 -794.224 0
991
root 1.12653 15.1583 32.4697 5.18664 -4.49157 364.041
lfemur 8.68239 1.53444 5.21472
ltibia 1.10438e-14 0 0
lfoot -30.1191 -11.5588 0
ltoes -33.9943 0 0
rfemur -32.5952 -15.5543 -6.24185
rtibia 50.5097 0 0
rfoot -22.6741 4.75828 0
rtoes -42.4218 0 0
lowerback -1.45939 -0.33754 0.645489
upperback -0.679737 -0.452521 -5.83401
thorax 0.0666542 -0.240638 -6.42162
lowerneck -6.85749 1.14867 5.84324
upperneck 1.31199 0.925571 3.37201
head 1.58141 0.57597 0.101671
lclavicle -1.3409e-14 -4.67347e-15 0
lhumerus -58.3033 -45.3262 114.966
lradius 55.1042 0 0
lwrist 24.9786 0 0
lhand 37.1962 24.3636 0
lfingers 7.12502 0 0
lthumb 60.0331 38.1093 0
rclavicle -1.3409e-14 -4.67347e-15 0
rhumerus 3.63711 -24.6218 -0.226257
rradius 27.9187 0 0
rwrist -11.0197 0 0
rhand -31.3636 -44.2237 0
rfingers 7.12502 0 0
rthumb -4.63429 -794.153 0
992
root 1.12744 15.1587 32.4669 5.16214 -4.44032 364.023
lfemur 8.66521 1.47956 5.23155
ltibia 7.60672e-15 0 0
lfoot -30.119 -11.5257 0
ltoes -34.0156 0 0
rfemur -32.5363 -15.5522 -6.23624
rtibia 50.4746 0 0
rfoot -22.6694 4.70382 0
rtoes -42.4805 0 0
lowerback -1.4485 -0.330343 0.636614
upperback -0.670493 -0.442532 -5.82946
thorax 0.0713625 -0.235287 -6.41147
lowerneck -6.88046 1.1415 5.84951
upperneck 1.33868 0.912218 3.37874
head 1.59401 0.570655 0.102457
lclavicle -1.3452e-14 -6.25052e-15 0
lhumerus -58.3221 -45.3905 115.001
lradius 55.1287 0 0
lwrist 24.9829 0 0
lhand 37.185 24.3639 0
lfingers 7.12502 0 0
lthumb 60.0236 38.1197 0
rclavicle -1.3452e-14 -6.25052e-15 0
rhumerus 3.59971 -24.5731 -0.2311
rradius 27.906 0 0
rwrist -10.992 0 0
rhand -31.3361 -44.1561 0
rfingers 7.12502 0 0
rthumb -4.60769 -794.086 0
993
root 1.12835 15.159 32.4641 5.13911 -4.38846 364.004
lfemur 8.64704 1.42473 5.25015
ltibia 3.87856e-15 0 0
lfoot -30.1185 -11.4924 0
ltoes -34.0361 0 0
rfemur -32.479 -15.5539 -6.22867
rtibia 50.4413 0 0
rfoot -22.6661 4.65157 0
rtoes -42.5402 0 0
lowerback -1.43712 -0.323199 0.627346
upperback -0.661986 -0.432661 -5.82567
thorax 0.075003 -0.230031 -6.4019
lowerneck -6.90346 1.13409 5.85592
upperneck 1.36327 0.898582 3.38632
head 1.60594 0.565153 0.103465
lclavicle -1.33425e-14 -7.81315e-15 0
lhumerus -58.3431 -45.4552 115.036
lradius 55.1542 0 0
lwrist 24.9875 0 0
lhand 37.1743 24.3666 0
lfingers 7.12502 0 0
lthumb 60.0144 38.1321 0
rclavicle -1.33425e-14 -7.81315e-15 0
rhumerus 3.56189 -24.5258 -0.231127
rradius 27.8942 0 0
rwrist -10.9687 0 0
rhand -31.3084 -44.0926 0
rfingers 7.12502 0 0
rthumb -4.58101 -794.023 0
994
root 1.12925 15.1594 32.4614 5.11745 -4.33621 363.984
lfemur 8.6281 1.37011 5.27027
ltibia -8.81242e-17 0 0
lfoot -30.1177 -11.459 0
ltoes -34.0558 0 0
rfemur -32.4233 -15.5589 -6.21937
rtibia 50.4096 0 0
rfoot -22.6641 4.60172 0
rtoes -42.6005 0 0
lowerback -1.42538 -0.316103 0.6177
upperback -0.654155 -0.422899 -5.82259
thorax 0.0777214 -0.224862 -6.39287
lowerneck -6.92639 1.12646 5.86253
upperneck 1.38588 0.884709 3.39465
head 1.61722 0.559488 0.104656
lclavicle -1.30946e-14 -9.34693e-15 0
lhumerus -58.3662 -45.5201 115.072
lradius 55.1808 0 0
lwrist 24.9926 0 0
lhand 37.164 24.3715 0
lfingers 7.12502 0 0
lthumb 60.0056 38.1463 0
rclavicle -1.30946e-14 -9.34693e-15 0
rhumerus 3.52379 -24.4799 -0.226818
rradius 27.8834 0 0
rwrist -10.9493 0 0
rhand -31.2808 -44.0327 0
rfingers 7.12502 0 0
rthumb -4.55429 -793.963 0
995
root 1.13016 15.1597 32.4586 5.0971 -4.28381 363.963
lfemur 8.60859 1.31588 5.29169
ltibia -4.24077e-15 0 0
lfoot -30.1165 -11.4257 0
ltoes -34.0748 0 0
rfemur -32.3692 -15.567 -6.20859
rtibia 50.3796 0 0
rfoot -22.6631 4.55446 0
rtoes -42.6606 0 0
lowerback -1.41343 -0.309055 0.607691
upperback -0.646945 -0.413235 -5.8202
thorax 0.0796632 -0.219772 -6.38436
lowerneck -6.94914 1.11864 5.86936
upperneck 1.40666 0.870643 3.40361
head 1.62788 0.553681 0.105992
lclavicle -1.27223e-14 -1.08374e-14 0
lhumerus -58.3908 -45.5849 115.107
lradius 55.208 0 0
lwrist 24.998 0 0
lhand 37.1543 24.3785 0
lfingers 7.12502 0 0
lthumb 59.9973 38.162 0
rclavicle -1.27223e-14 -1.08374e-14 0
rhumerus 3.48555 -24.4355 -0.218655
rradius 27.8735 0 0
rwrist -10.9332 0 0
rhand -31.2531 -43.9762 0
rfingers 7.12502 0 0
rthumb -4.5276 -793.907 0
996
root 1.13107 15.1601 32.4558 5.07797 -4.23149 363.942
lfemur 8.58874 1.2622 5.31418
ltibia -8.52685e-15 0 0
lfoot -30.1151 -11.3927 0
ltoes -34.093 0 0
rfemur -32.3166 -15.5777 -6.19657
rtibia 50.3512 0 0
rfoot -22.6629 4.50998 0
rtoes -42.7198 0 0
lowerback -1.40143 -0.302051 0.597333
upperback -0.640294 -0.403659 -5.81846
thorax 0.080974 -0.21475 -6.37635
lowerneck -6.97159 1.11067 5.87646
upperneck 1.42576 0.856429 3.4131
head 1.63795 0.547758 0.107432
lclavicle -1.22395e-14 -1.22702e-14 0
lhumerus -58.4167 -45.6495 115.143
lradius 55.2359 0 0
lwrist 25.0037 0 0
lhand 37.1451 24.3874 0
lfingers 7.12502 0 0
lthumb 59.9894 38.1791 0
rclavicle -1.22395e-14 -1.22702e-14 0
rhumerus 3.44729 -24.3925 -0.207117
rradius 27.8642 0 0
rwrist -10.92 0 0
rhand -31.2256 -43.9227 0
rfingers 7.12502 0 0
rthumb -4.501 -793.855 0
997
root 1.13198 15.1604 32.453 5.05997 -4.17948 363.921
lfemur 8.56877 1.20926 5.3375
ltibia -1.28938e-14 0 0
lfoot -30.1135 -11.3601 0
ltoes -34.1106 0 0
rfemur -32.2657 -15.5907 -6.18357
rtibia 50.3244 0 0
rfoot -22.6632 4.46845 0
rtoes -42.7777 0 0
lowerback -1.38952 -0.295091 0.58664
upperback -0.634146 -0.394161 -5.81734
thorax 0.0817995 -0.209789 -6.36881
lowerneck -6.99365 1.10257 5.88387
upperneck 1.4433 0.842112 3.423
head 1.64746 0.541741 0.108939
lclavicle -1.16602e-14 -1.36309e-14 0
lhumerus -58.4436 -45.7136 115.178
lradius 55.2641 0 0
lwrist 25.0098 0 0
lhand 37.1365 24.398 0
lfingers 7.12502 0 0
lthumb 59.9821 38.1974 0
rclavicle -1.16602e-14 -1.36309e-14 0
rhumerus 3.40915 -24.3509 -0.192686
rradius 27.8555 0 0
rwrist -10.909 0 0
rhand -31.1982 -43.872 0
rfingers 7.12502 0 0
rthumb -4.47455 -793.804 0
998
root 1.13289 15.1608 32.4502 5.04303 -4.12802 363.899
lfemur 8.54888 1.15721 5.36141
ltibia -1.72891e-14 0 0
lfoot -30.1118 -11.328 0
ltoes -34.1275 0 0
rfemur -32.2163 -15.6056 -6.16984
rtibia 50.2991 0 0
rfoot -22.6638 4.43006 0
rtoes -42.8335 0 0
lowerback -1.37784 -0.288172 0.575626
upperback -0.628442 -0.384731 -5.81681
thorax 0.0822851 -0.204879 -6.36171
lowerneck -7.0152 1.09439 5.89161
upperneck 1.45944 0.827737 3.4332
head 1.65642 0.535654 0.110472
lclavicle -1.09986e-14 -1.49051e-14 0
lhumerus -58.4711 -45.7768 115.213
lradius 55.2924 0 0
lwrist 25.0161 0 0
lhand 37.1286 24.4101 0
lfingers 7.12502 0 0
lthumb 59.9753 38.2166 0
rclavicle -1.09986e-14 -1.49051e-14 0
rhumerus 3.37127 -24.3108 -0.175841
rradius 27.8472 0 0
rwrist -10.8997 0 0
rhand -31.171 -43.8236 0
rfingers 7.12502 0 0
rthumb -4.44831 -793.757 0
